# xmcd
# Copyright (C) 1995-1998 Ti Kan
#
# Track frame offsets:
#       150
#       42890
#       78182
#       112978
#       155536
#       193228
#       227005
#
# Disc length: 3330 seconds
#
# Revision: 0
# Processed by: cddbd v1.5.2PL0 Copyright (c) Steve Scherf et al.
# Submitted via: CD-Import v1.0
#
DISCID=4d0d0007
DTITLE=D>a<v Pocket - Genie Und Wahnsinn 
DYEAR=1900
DGENRE=
TTITLE0=Werter Herr !
TTITLE1=Also, Die Inspiration 
TTITLE2=So  Unbarmherzig
TTITLE3=Warum Können Es Dann
TTITLE4=Welche Reaktionen
TTITLE5=Da Stard
TTITLE6=Da Nun Verstand Ich
EXTD=
EXTT0=
EXTT1=
EXTT2=
EXTT3=
EXTT4=
EXTT5=
EXTT6=
PLAYORDER=
